<?xml version="1.0" encoding="utf-8"?>
<!-- Generator: Adobe Illustrator 24.1.2, SVG Export Plug-In . SVG Version: 6.00 Build 0)  -->
<svg version="1.1" id="Layer_1" xmlns="http://www.w3.org/2000/svg" xmlns:xlink="http://www.w3.org/1999/xlink" x="0px" y="0px"
	 viewBox="0 0 980 866" style="enable-background:new 0 0 980 866;" xml:space="preserve">
<style type="text/css">
	.st0{fill:#4881FF;stroke:#4881FF;stroke-width:50;stroke-miterlimit:10;}
	.st1{fill:#1958E3;stroke:#1958E3;stroke-width:50;stroke-miterlimit:10;}
</style>
<g transform="translate(0.000000,866.000000) scale(0.100000,-0.100000)">
	<path class="st0" d="M2398,8645c-465-51-836-183-1203-430C556,7785,137,7133,23,6390c-24-159-24-491,0-650
		c87-566,356-1175,824-1869c625-926,1597-1948,2828-2974c238-199,696-567,850-684c104-79,239-166,290-188c58-25,140-23,195,5
		c102,52,301,200,725,539c480,384,581,478,602,559c12,50-3,166-30,218c-45,89-117,138-219,150c-97,11-134-13-653-426
		c-369-293-460-364-507-394c-27-17-27-17-105,41c-135,100-598,471-848,680c-1071,893-1948,1788-2517,2568
		c-494,678-789,1305-863,1837c-52,377,23,834,195,1183c270,549,797,944,1400,1050c289,51,666,37,951-35c481-122,866-397,1142-815
		c188-285,287-595,332-1035c9-85,21-172,26-193c23-89,162-187,263-187c90,0,221,82,253,159c8,19,26,129,39,243c13,115,35,261,50,326
		c90,403,267,737,528,998c305,303,669,482,1121,550c164,24,476,25,635,0c871-132,1488-717,1659-1571c34-168,44-298,38-470
		c-10-300-68-527-243-957c-46-115-87-227-90-250c-12-90,67-222,160-270c22-11,68-23,101-25c108-9,181,24,247,111
		c129,172,325,726,375,1062c25,173,25,657-1,799c-95,523-380,1048-777,1430c-743,714-1771,933-2688,572c-301-119-590-303-845-539
		c-164-153-384-423-499-613c-29-49-58-90-63-91c-5-2-31,35-58,82c-61,103-216,312-333,446c-233,268-563,510-903,663
		C3239,8592,2742,8682,2398,8645z"/>
	<path class="st1" d="M5993,5180c-59-12-98-35-130-75c-45-56-152-255-370-685c-344-678-537-1039-549-1028c-2,3-64,185-138,405
		c-194,577-243,693-318,757c-69,59-178,72-263,32c-71-33-151-102-391-338l-211-208h-179c-185,0-320-11-388-30c-53-16-121-82-143-138
		c-27-70-24-193,6-254c26-55,84-109,138-128c29-11,129-15,420-17l382-4l158,150c86,83,162,151,168,151c14,0,92-213,268-735
		c195-577,201-591,252-641s117-74,200-74s148,24,184,66c49,61,137,225,442,824c321,631,458,891,474,897c12,4,8,17,484-1402
		c426-1271,475-1408,528-1466c43-48,114-73,205-72c91,0,152,31,196,98c86,131,352,643,814,1568l313,627h400c480,1,635,9,692,39
		c61,31,96,64,128,123c26,45,30,64,30,128c0,65-4,83-30,129c-38,68-108,125-177,142c-75,20-1206,20-1289,1c-74-17-125-61-185-160
		c-26-42-225-426-441-852s-397-778-401-782c-10-10-107,270-497,1432c-321,958-458,1358-480,1400C6252,5144,6104,5202,5993,5180z"/>
</g>
</svg>
